<?xml version="1.0" encoding="UTF-8"?><svg xmlns="http://www.w3.org/2000/svg" xmlns:xlink="http://www.w3.org/1999/xlink" width="375" zoomAndPan="magnify" viewBox="0 0 375 374.999991" height="374.999991" preserveAspectRatio="xMidYMid meet" version="1.0"><defs><clipPath id="clip-0"><path d="M 213 212.257812 L 375 212.257812 L 375 375 L 213 375 Z M 213 212.257812 " clip-rule="nonzero"/></clipPath><clipPath id="clip-1"><path d="M 213 0 L 375 0 L 375 163.484375 L 213 163.484375 Z M 213 0 " clip-rule="nonzero"/></clipPath><clipPath id="clip-2"><path d="M 195 60.019531 L 292 60.019531 L 292 315 L 195 315 Z M 195 60.019531 " clip-rule="nonzero"/></clipPath><clipPath id="clip-3"><path d="M 83 60.019531 L 180 60.019531 L 180 315 L 83 315 Z M 83 60.019531 " clip-rule="nonzero"/></clipPath></defs><path fill="rgb(0%, 0%, 0%)" d="M 188.84375 -121.886719 L 187.632812 -122.308594 L 128.953125 43.03125 L -32.726562 -33.878906 L 44.121094 128 L -124.351562 187.972656 L 44.121094 247.953125 L -32.726562 409.8125 L 128.953125 332.925781 L 188.835938 501.671875 L 248.726562 332.925781 L 410.402344 409.8125 L 333.554688 247.953125 L 502.003906 187.972656 L 333.554688 128 L 410.402344 -33.878906 L 248.726562 43.03125 L 188.835938 -125.71875 L 187.632812 -122.308594 L 188.84375 -121.886719 L 187.632812 -121.457031 L 247.261719 46.578125 L 404.988281 -28.453125 L 330.015625 129.464844 L 494.351562 187.972656 L 330.015625 246.492188 L 404.988281 404.386719 L 247.261719 329.386719 L 188.84375 494 L 130.417969 329.386719 L -27.3125 404.398438 L 47.664062 246.492188 L -116.691406 187.972656 L 47.664062 129.464844 L -27.3125 -28.453125 L 130.417969 46.578125 L 190.046875 -121.457031 L 188.84375 -121.886719 L 187.632812 -121.457031 Z M 187.632812 -88.746094 L 236.472656 48.894531 L 240.996094 61.671875 L 253.21875 55.84375 L 381.886719 -5.339844 L 320.742188 123.476562 L 314.945312 135.71875 L 327.679688 140.261719 L 461.683594 187.972656 L 327.679688 235.691406 L 314.945312 240.234375 L 320.742188 252.488281 L 381.886719 381.285156 L 253.21875 320.089844 L 240.996094 314.273438 L 236.472656 327.039062 L 188.84375 461.28125 L 141.183594 327.039062 L 136.652344 314.273438 L 124.410156 320.089844 L -4.238281 381.285156 L 56.917969 252.488281 L 62.734375 240.234375 L 49.980469 235.691406 L -84.023438 187.972656 L 49.980469 140.261719 L 62.742188 135.71875 L 56.917969 123.476562 L -4.238281 -5.339844 L 124.410156 55.84375 L 136.652344 61.671875 L 141.183594 48.894531 L 190.046875 -88.746094 L 187.632812 -89.609375 L 138.769531 48.035156 L 135.1875 58.121094 L 125.523438 53.527344 L -9.644531 -10.765625 L 54.589844 124.582031 L 59.195312 134.257812 L 49.117188 137.847656 L -91.675781 187.972656 L 49.117188 238.109375 L 59.195312 241.699219 L 54.589844 251.382812 L -9.644531 386.699219 L 125.523438 322.40625 L 135.1875 317.8125 L 138.769531 327.902344 L 188.84375 468.960938 L 238.890625 327.902344 L 242.46875 317.8125 L 252.117188 322.40625 L 387.300781 386.699219 L 323.058594 251.382812 L 318.476562 241.699219 L 328.542969 238.109375 L 469.332031 187.972656 L 328.542969 137.847656 L 318.476562 134.257812 L 323.058594 124.582031 L 387.300781 -10.765625 L 252.117188 53.527344 L 242.46875 58.121094 L 238.890625 48.035156 L 190.046875 -89.609375 L 187.632812 -88.746094 " fill-opacity="1" fill-rule="nonzero"/><path fill="rgb(0%, 0%, 0%)" d="M 188.835938 -32.355469 L 187.621094 -32.785156 L 146.039062 84.402344 L 30.496094 29.441406 L 85.425781 145.117188 L -34.972656 187.972656 L 85.425781 230.839844 L 30.496094 346.5 L 146.039062 291.5625 L 188.835938 412.148438 L 231.628906 291.5625 L 347.171875 346.5 L 292.253906 230.839844 L 412.628906 187.972656 L 292.253906 145.117188 L 347.171875 29.441406 L 231.628906 84.402344 L 188.835938 -36.195312 L 187.621094 -32.785156 L 188.835938 -32.355469 L 187.621094 -31.933594 L 230.167969 87.941406 L 341.757812 34.859375 L 288.714844 146.578125 L 404.980469 187.972656 L 288.714844 229.375 L 341.757812 341.085938 L 230.167969 288.023438 L 188.835938 404.476562 L 147.503906 288.023438 L 35.910156 341.085938 L 88.953125 229.375 L -27.320312 187.972656 L 88.953125 146.578125 L 35.910156 34.859375 L 147.503906 87.941406 L 190.046875 -31.933594 L 188.835938 -32.355469 L 187.621094 -31.933594 Z M 187.621094 -8.671875 L 222.355469 89.203125 L 225.714844 98.671875 L 234.769531 94.347656 L 325.324219 51.292969 L 282.296875 141.957031 L 277.996094 151.03125 L 287.441406 154.402344 L 381.738281 187.972656 L 287.441406 221.554688 L 277.996094 224.921875 L 282.289062 234.007812 L 325.324219 324.652344 L 234.769531 281.585938 L 225.714844 277.273438 L 222.355469 286.738281 L 188.835938 381.214844 L 155.304688 286.738281 L 151.945312 277.273438 L 142.871094 281.585938 L 52.324219 324.652344 L 95.363281 234.015625 L 99.671875 224.921875 L 90.21875 221.554688 L -4.085938 187.972656 L 90.21875 154.402344 L 99.671875 151.03125 L 95.363281 141.957031 L 52.324219 51.292969 L 142.871094 94.347656 L 151.945312 98.671875 L 155.304688 89.203125 L 190.046875 -8.671875 L 187.621094 -9.53125 L 152.878906 88.34375 L 150.46875 95.128906 L 143.964844 92.03125 L 46.910156 45.878906 L 93.046875 143.050781 L 96.132812 149.558594 L 89.355469 151.976562 L -11.738281 187.972656 L 89.355469 223.96875 L 96.144531 226.386719 L 93.046875 232.914062 L 46.910156 330.066406 L 143.964844 283.902344 L 150.46875 280.8125 L 152.878906 287.601562 L 188.835938 388.886719 L 224.773438 287.601562 L 227.179688 280.8125 L 233.675781 283.902344 L 330.738281 330.066406 L 284.613281 232.914062 L 281.523438 226.386719 L 288.304688 223.96875 L 389.398438 187.972656 L 288.304688 151.976562 L 281.523438 149.558594 L 284.613281 143.050781 L 330.738281 45.867188 L 233.675781 92.03125 L 227.179688 95.121094 L 224.773438 88.34375 L 190.046875 -9.53125 L 187.621094 -8.671875 " fill-opacity="1" fill-rule="nonzero"/><path fill="rgb(0%, 0%, 0%)" d="M 188.835938 28.902344 L 187.621094 28.480469 L 157.730469 112.707031 L 73.761719 72.769531 L 113.679688 156.828125 L 26.195312 187.972656 L 113.679688 219.125 L 73.761719 303.175781 L 157.730469 263.253906 L 188.835938 350.894531 L 219.9375 263.253906 L 303.894531 303.183594 L 263.988281 219.125 L 351.476562 187.972656 L 263.988281 156.828125 L 303.894531 72.769531 L 219.9375 112.707031 L 188.835938 25.0625 L 187.621094 28.480469 L 188.835938 28.902344 L 187.621094 29.332031 L 218.464844 116.246094 L 298.492188 78.183594 L 260.449219 158.300781 L 343.8125 187.972656 L 260.449219 217.664062 L 298.492188 297.757812 L 218.464844 259.714844 L 188.835938 343.210938 L 159.195312 259.714844 L 79.175781 297.757812 L 117.21875 217.664062 L 33.84375 187.972656 L 117.21875 158.300781 L 79.175781 78.183594 L 159.195312 116.246094 L 190.046875 29.332031 L 188.835938 28.902344 L 187.621094 29.332031 L 188.835938 28.902344 " fill-opacity="1" fill-rule="nonzero"/><g clip-path="url(#clip-0)"><path fill="rgb(0%, 0%, 0%)" d="M 678.851562 678.558594 L 680.003906 678.007812 L 510.65625 321.351562 L 735.144531 241.417969 L 735.144531 212.640625 L 500.238281 296.285156 L 473.375 305.871094 L 485.585938 331.722656 L 624.414062 624.101562 L 332.292969 485.195312 L 306.542969 472.933594 L 296.988281 499.855469 L 213.511719 735.144531 L 242.230469 735.144531 L 322.023438 510.292969 L 681.546875 681.265625 L 680.003906 678.007812 L 678.851562 678.558594 L 679.390625 677.40625 L 320.5625 506.753906 L 240.425781 732.578125 L 217.140625 732.578125 L 299.402344 500.707031 L 308.007812 476.472656 L 331.191406 487.511719 L 629.828125 629.527344 L 487.914062 330.628906 L 476.902344 307.335938 L 501.101562 298.703125 L 732.578125 216.277344 L 732.578125 239.601562 L 507.125 319.890625 L 677.6875 679.113281 L 678.851562 678.558594 L 679.390625 677.40625 L 678.851562 678.558594 " fill-opacity="1" fill-rule="nonzero"/></g><path fill="rgb(0%, 0%, 0%)" d="M -357.59375 135.929688 L -358.886719 135.929688 L -358.886719 163.785156 L -122.578125 79.648438 L -95.65625 70.074219 L -107.9375 44.253906 L -246.765625 -248.199219 L 45.304688 -109.292969 L 71.105469 -97.019531 L 80.671875 -123.953125 L 164.066406 -358.878906 L 135.378906 -358.878906 L 55.683594 -134.339844 L -303.847656 -305.351562 L -132.957031 54.601562 L -358.886719 135.027344 L -358.886719 135.929688 L -357.59375 135.929688 L -357.171875 137.144531 L -129.417969 56.066406 L -298.433594 -299.9375 L 57.148438 -130.800781 L 137.183594 -356.3125 L 160.4375 -356.3125 L 78.246094 -124.804688 L 69.640625 -100.558594 L 46.398438 -111.609375 L -252.179688 -253.613281 L -110.265625 45.355469 L -99.207031 68.597656 L -123.429688 77.230469 L -356.320312 160.148438 L -356.320312 135.929688 L -357.59375 135.929688 L -357.171875 137.144531 L -357.59375 135.929688 " fill-opacity="1" fill-rule="nonzero"/><path fill="rgb(0%, 0%, 0%)" d="M 79.457031 500.289062 L 80.671875 499.855469 L 71.105469 472.933594 L 45.304688 485.195312 L -246.765625 624.101562 L -107.9375 331.722656 L -95.664062 305.871094 L -122.578125 296.285156 L -358.886719 212.148438 L -358.886719 240.90625 L -132.957031 321.351562 L -303.847656 681.265625 L 55.683594 510.292969 L 135.480469 735.144531 L 164.1875 735.144531 L 80.671875 499.855469 L 79.457031 500.289062 L 78.246094 500.707031 L 160.558594 732.578125 L 137.292969 732.578125 L 57.148438 506.753906 L -298.433594 675.851562 L -129.417969 319.890625 L -356.320312 239.101562 L -356.320312 215.777344 L -123.429688 298.703125 L -99.207031 307.335938 L -110.265625 330.628906 L -252.179688 629.527344 L 46.410156 487.511719 L 69.640625 476.472656 L 78.246094 500.707031 L 79.457031 500.289062 " fill-opacity="1" fill-rule="nonzero"/><g clip-path="url(#clip-1)"><path fill="rgb(0%, 0%, 0%)" d="M 678.851562 -302.644531 L 678.300781 -303.808594 L 322.023438 -134.339844 L 242.339844 -358.878906 L 213.632812 -358.878906 L 296.988281 -123.953125 L 306.542969 -97.019531 L 332.292969 -109.292969 L 624.414062 -248.199219 L 485.597656 44.253906 L 473.375 70.074219 L 500.238281 79.648438 L 735.144531 163.285156 L 735.144531 134.515625 L 510.65625 54.601562 L 681.546875 -305.363281 L 678.300781 -303.808594 L 678.851562 -302.644531 L 677.6875 -303.199219 L 507.117188 56.066406 L 732.578125 136.332031 L 732.578125 159.644531 L 501.101562 77.230469 L 476.902344 68.597656 L 487.914062 45.355469 L 629.828125 -253.625 L 331.191406 -111.609375 L 308.007812 -100.558594 L 299.402344 -124.804688 L 217.261719 -356.3125 L 240.523438 -356.3125 L 320.550781 -130.800781 L 679.390625 -301.492188 L 678.851562 -302.644531 L 677.6875 -303.199219 L 678.851562 -302.644531 " fill-opacity="1" fill-rule="nonzero"/></g><path fill="rgb(0%, 0%, 0%)" d="M 254.613281 352.257812 L 253.339844 352.117188 L 245.578125 421.125 L 237.554688 492.324219 L 303.125 463.6875 L 368.730469 435.019531 L 311.144531 392.464844 L 253.578125 349.898438 L 253.339844 352.117188 L 254.613281 352.257812 L 253.851562 353.289062 L 309.621094 394.53125 L 363.636719 434.449219 L 302.101562 461.332031 L 240.613281 488.195312 L 248.136719 421.414062 L 255.886719 352.398438 L 254.613281 352.257812 L 253.851562 353.289062 L 254.613281 352.257812 " fill-opacity="1" fill-rule="nonzero"/><path fill="rgb(0%, 0%, 0%)" d="M -113.292969 228.480469 L -114.496094 228.921875 L -90.59375 294.128906 L -65.957031 361.402344 L -20.132812 306.363281 L 25.722656 251.355469 L -44.757812 239.109375 L -115.257812 226.835938 L -114.496094 228.921875 L -113.292969 228.480469 L -113.503906 229.746094 L -45.199219 241.636719 L 20.910156 253.117188 L -22.105469 304.71875 L -65.074219 356.335938 L -88.183594 293.246094 L -112.082031 228.039062 L -113.292969 228.480469 L -113.503906 229.746094 L -113.292969 228.480469 " fill-opacity="1" fill-rule="nonzero"/><path fill="rgb(0%, 0%, 0%)" d="M -51.828125 5.246094 L -52.96875 4.675781 L -84.15625 66.742188 L -116.351562 130.738281 L -44.898438 126.605469 L 26.535156 122.546875 L -12.742188 62.632812 L -51.976562 2.679688 L -52.96875 4.675781 L -51.828125 5.246094 L -52.898438 5.960938 L -14.886719 64.046875 L 21.941406 120.238281 L -45.046875 124.050781 L -112.058594 127.917969 L -81.859375 67.898438 L -50.683594 5.828125 L -51.828125 5.246094 L -52.898438 5.960938 L -51.828125 5.246094 " fill-opacity="1" fill-rule="nonzero"/><path fill="rgb(0%, 0%, 0%)" d="M 491.261719 228.480469 L 491.042969 227.207031 L 422.746094 239.109375 L 352.246094 251.355469 L 398.109375 306.363281 L 443.933594 361.402344 L 468.589844 294.128906 L 493.226562 226.835938 L 491.042969 227.207031 L 491.261719 228.480469 L 490.058594 228.039062 L 466.183594 293.246094 L 443.050781 356.335938 L 400.078125 304.71875 L 357.058594 253.117188 L 423.1875 241.636719 L 491.484375 229.746094 L 491.261719 228.480469 L 490.058594 228.039062 L 491.261719 228.480469 " fill-opacity="1" fill-rule="nonzero"/><path fill="rgb(0%, 0%, 0%)" d="M 429.828125 5.246094 L 428.753906 4.546875 L 390.722656 62.632812 L 351.445312 122.546875 L 422.898438 126.605469 L 494.332031 130.738281 L 462.144531 66.742188 L 429.976562 2.679688 L 428.753906 4.546875 L 429.828125 5.246094 L 428.683594 5.828125 L 459.847656 67.898438 L 490.039062 127.917969 L 423.039062 124.050781 L 356.027344 120.238281 L 392.867188 64.046875 L 430.898438 5.960938 L 429.828125 5.246094 L 428.683594 5.828125 L 429.828125 5.246094 " fill-opacity="1" fill-rule="nonzero"/><path fill="rgb(0%, 0%, 0%)" d="M 124.109375 352.257812 L 123.347656 351.222656 L 67.578125 392.464844 L 10.011719 435.019531 L 75.597656 463.6875 L 141.175781 492.324219 L 133.164062 421.125 L 125.140625 349.898438 L 123.347656 351.222656 L 124.109375 352.257812 L 122.835938 352.40625 L 138.128906 488.195312 L 76.621094 461.332031 L 15.105469 434.449219 L 69.101562 394.53125 L 124.871094 353.289062 L 124.109375 352.257812 L 122.835938 352.40625 L 124.109375 352.257812 " fill-opacity="1" fill-rule="nonzero"/><path fill="rgb(0%, 0%, 0%)" d="M 239.082031 -108.300781 L 237.808594 -108.148438 L 245.578125 -39.152344 L 253.578125 32.070312 L 311.144531 -10.484375 L 368.730469 -53.050781 L 303.125 -81.707031 L 237.554688 -110.367188 L 237.808594 -108.148438 L 239.082031 -108.300781 L 238.570312 -107.117188 L 302.101562 -79.363281 L 363.636719 -52.46875 L 309.621094 -12.550781 L 255.636719 27.367188 L 248.136719 -39.433594 L 240.363281 -108.441406 L 239.082031 -108.300781 L 238.570312 -107.117188 L 239.082031 -108.300781 " fill-opacity="1" fill-rule="nonzero"/><path fill="rgb(0%, 0%, 0%)" d="M 139.660156 -108.300781 L 139.140625 -109.472656 L 75.597656 -81.707031 L 10.011719 -53.050781 L 67.578125 -10.484375 L 125.140625 32.070312 L 133.164062 -39.152344 L 141.175781 -110.367188 L 139.140625 -109.472656 L 139.660156 -108.300781 L 138.378906 -108.441406 L 130.605469 -39.445312 L 123.085938 27.367188 L 69.101562 -12.550781 L 15.105469 -52.46875 L 76.621094 -79.363281 L 140.171875 -107.117188 L 139.660156 -108.300781 L 138.378906 -108.441406 L 139.660156 -108.300781 " fill-opacity="1" fill-rule="nonzero"/><path fill="rgb(77.648926%, 87.838745%, 100%)" d="M 187.59375 11.71875 C 184.714844 11.71875 181.839844 11.789062 178.964844 11.929688 C 176.089844 12.070312 173.21875 12.285156 170.355469 12.566406 C 167.492188 12.847656 164.632812 13.199219 161.789062 13.621094 C 158.941406 14.042969 156.105469 14.535156 153.28125 15.097656 C 150.460938 15.660156 147.652344 16.289062 144.859375 16.988281 C 142.066406 17.6875 139.292969 18.457031 136.539062 19.292969 C 133.785156 20.128906 131.054688 21.03125 128.34375 22 C 125.632812 22.96875 122.949219 24.003906 120.289062 25.105469 C 117.628906 26.207031 115 27.375 112.398438 28.605469 C 109.796875 29.835938 107.226562 31.128906 104.6875 32.484375 C 102.148438 33.84375 99.644531 35.261719 97.175781 36.742188 C 94.707031 38.21875 92.277344 39.761719 89.882812 41.359375 C 87.488281 42.957031 85.136719 44.613281 82.824219 46.328125 C 80.511719 48.042969 78.246094 49.816406 76.019531 51.640625 C 73.792969 53.464844 71.617188 55.347656 69.484375 57.277344 C 67.351562 59.210938 65.265625 61.195312 63.230469 63.230469 C 61.195312 65.265625 59.210938 67.351562 57.277344 69.484375 C 55.347656 71.617188 53.464844 73.792969 51.640625 76.019531 C 49.816406 78.246094 48.042969 80.511719 46.328125 82.824219 C 44.613281 85.136719 42.957031 87.488281 41.359375 89.882812 C 39.761719 92.277344 38.21875 94.707031 36.742188 97.175781 C 35.261719 99.644531 33.84375 102.148438 32.484375 104.6875 C 31.128906 107.226562 29.835938 109.796875 28.605469 112.398438 C 27.375 115 26.207031 117.628906 25.105469 120.289062 C 24.003906 122.949219 22.96875 125.632812 22 128.34375 C 21.03125 131.054688 20.128906 133.785156 19.292969 136.539062 C 18.457031 139.292969 17.6875 142.066406 16.988281 144.859375 C 16.289062 147.652344 15.660156 150.460938 15.097656 153.28125 C 14.535156 156.105469 14.042969 158.941406 13.621094 161.789062 C 13.199219 164.632812 12.847656 167.492188 12.566406 170.355469 C 12.285156 173.21875 12.070312 176.089844 11.929688 178.964844 C 11.789062 181.839844 11.71875 184.714844 11.71875 187.59375 C 11.71875 190.472656 11.789062 193.347656 11.929688 196.222656 C 12.070312 199.097656 12.285156 201.96875 12.566406 204.832031 C 12.847656 207.695312 13.199219 210.554688 13.621094 213.398438 C 14.042969 216.246094 14.535156 219.082031 15.097656 221.90625 C 15.660156 224.726562 16.289062 227.535156 16.988281 230.328125 C 17.6875 233.121094 18.457031 235.894531 19.292969 238.648438 C 20.128906 241.402344 21.03125 244.132812 22 246.84375 C 22.96875 249.554688 24.003906 252.238281 25.105469 254.898438 C 26.207031 257.558594 27.375 260.1875 28.605469 262.789062 C 29.835938 265.390625 31.128906 267.960938 32.484375 270.5 C 33.84375 273.039062 35.261719 275.542969 36.742188 278.011719 C 38.21875 280.480469 39.761719 282.910156 41.359375 285.304688 C 42.957031 287.699219 44.613281 290.050781 46.328125 292.363281 C 48.042969 294.675781 49.816406 296.941406 51.640625 299.167969 C 53.464844 301.394531 55.347656 303.570312 57.277344 305.703125 C 59.210938 307.835938 61.195312 309.921875 63.230469 311.957031 C 65.265625 313.992188 67.351562 315.976562 69.484375 317.910156 C 71.617188 319.839844 73.792969 321.722656 76.019531 323.546875 C 78.246094 325.371094 80.511719 327.144531 82.824219 328.859375 C 85.136719 330.574219 87.488281 332.230469 89.882812 333.828125 C 92.277344 335.425781 94.707031 336.96875 97.175781 338.445312 C 99.644531 339.925781 102.148438 341.34375 104.6875 342.703125 C 107.226562 344.058594 109.796875 345.351562 112.398438 346.582031 C 115 347.8125 117.628906 348.980469 120.289062 350.082031 C 122.949219 351.183594 125.632812 352.21875 128.34375 353.1875 C 131.054688 354.15625 133.785156 355.058594 136.539062 355.894531 C 139.292969 356.730469 142.066406 357.5 144.859375 358.199219 C 147.652344 358.898438 150.460938 359.527344 153.28125 360.089844 C 156.105469 360.652344 158.941406 361.144531 161.789062 361.566406 C 164.632812 361.988281 167.492188 362.339844 170.355469 362.621094 C 173.21875 362.902344 176.089844 363.117188 178.964844 363.257812 C 181.839844 363.398438 184.714844 363.46875 187.59375 363.46875 C 190.472656 363.46875 193.347656 363.398438 196.222656 363.257812 C 199.097656 363.117188 201.96875 362.902344 204.832031 362.621094 C 207.695312 362.339844 210.554688 361.988281 213.398438 361.566406 C 216.246094 361.144531 219.082031 360.652344 221.90625 360.089844 C 224.726562 359.527344 227.535156 358.898438 230.328125 358.199219 C 233.121094 357.5 235.894531 356.730469 238.648438 355.894531 C 241.402344 355.058594 244.132812 354.15625 246.84375 353.1875 C 249.554688 352.21875 252.238281 351.183594 254.898438 350.082031 C 257.558594 348.980469 260.1875 347.8125 262.789062 346.582031 C 265.390625 345.351562 267.960938 344.058594 270.5 342.703125 C 273.039062 341.34375 275.542969 339.925781 278.011719 338.445312 C 280.480469 336.96875 282.910156 335.425781 285.304688 333.828125 C 287.699219 332.230469 290.050781 330.574219 292.363281 328.859375 C 294.675781 327.144531 296.941406 325.371094 299.167969 323.546875 C 301.394531 321.722656 303.570312 319.839844 305.703125 317.910156 C 307.835938 315.976562 309.921875 313.992188 311.957031 311.957031 C 313.992188 309.921875 315.976562 307.835938 317.910156 305.703125 C 319.839844 303.570312 321.722656 301.394531 323.546875 299.167969 C 325.371094 296.941406 327.144531 294.675781 328.859375 292.363281 C 330.574219 290.050781 332.230469 287.699219 333.828125 285.304688 C 335.425781 282.910156 336.96875 280.480469 338.445312 278.011719 C 339.925781 275.542969 341.34375 273.039062 342.703125 270.5 C 344.058594 267.960938 345.351562 265.390625 346.582031 262.789062 C 347.8125 260.1875 348.980469 257.558594 350.082031 254.898438 C 351.183594 252.238281 352.21875 249.554688 353.1875 246.84375 C 354.15625 244.132812 355.058594 241.402344 355.894531 238.648438 C 356.730469 235.894531 357.5 233.121094 358.199219 230.328125 C 358.898438 227.535156 359.527344 224.726562 360.089844 221.90625 C 360.652344 219.082031 361.144531 216.246094 361.566406 213.398438 C 361.988281 210.554688 362.339844 207.695312 362.621094 204.832031 C 362.902344 201.96875 363.117188 199.097656 363.257812 196.222656 C 363.398438 193.347656 363.46875 190.472656 363.46875 187.59375 C 363.46875 184.714844 363.398438 181.839844 363.257812 178.964844 C 363.117188 176.089844 362.902344 173.21875 362.621094 170.355469 C 362.339844 167.492188 361.988281 164.632812 361.566406 161.789062 C 361.144531 158.941406 360.652344 156.105469 360.089844 153.28125 C 359.527344 150.460938 358.898438 147.652344 358.199219 144.859375 C 357.5 142.066406 356.730469 139.292969 355.894531 136.539062 C 355.058594 133.785156 354.15625 131.054688 353.1875 128.34375 C 352.21875 125.632812 351.183594 122.949219 350.082031 120.289062 C 348.980469 117.628906 347.8125 115 346.582031 112.398438 C 345.351562 109.796875 344.058594 107.226562 342.703125 104.6875 C 341.34375 102.148438 339.925781 99.644531 338.445312 97.175781 C 336.96875 94.707031 335.425781 92.277344 333.828125 89.882812 C 332.230469 87.488281 330.574219 85.136719 328.859375 82.824219 C 327.144531 80.511719 325.371094 78.246094 323.546875 76.019531 C 321.722656 73.792969 319.839844 71.617188 317.910156 69.484375 C 315.976562 67.351562 313.992188 65.265625 311.957031 63.230469 C 309.921875 61.195312 307.835938 59.210938 305.703125 57.277344 C 303.570312 55.347656 301.394531 53.464844 299.167969 51.640625 C 296.941406 49.816406 294.675781 48.042969 292.363281 46.328125 C 290.050781 44.613281 287.699219 42.957031 285.304688 41.359375 C 282.910156 39.761719 280.480469 38.21875 278.011719 36.742188 C 275.542969 35.261719 273.039062 33.84375 270.5 32.484375 C 267.960938 31.128906 265.390625 29.835938 262.789062 28.605469 C 260.1875 27.375 257.558594 26.207031 254.898438 25.105469 C 252.238281 24.003906 249.554688 22.96875 246.84375 22 C 244.132812 21.03125 241.402344 20.128906 238.648438 19.292969 C 235.894531 18.457031 233.121094 17.6875 230.328125 16.988281 C 227.535156 16.289062 224.726562 15.660156 221.90625 15.097656 C 219.082031 14.535156 216.246094 14.042969 213.398438 13.621094 C 210.554688 13.199219 207.695312 12.847656 204.832031 12.566406 C 201.96875 12.285156 199.097656 12.070312 196.222656 11.929688 C 193.347656 11.789062 190.472656 11.71875 187.59375 11.71875 Z M 187.59375 11.71875 " fill-opacity="1" fill-rule="nonzero"/><path fill="rgb(11.759949%, 11.759949%, 11.759949%)" d="M 187.382812 332.660156 C 148.597656 332.660156 112.074219 317.5625 84.667969 290.097656 C 57.203125 262.691406 42.109375 226.171875 42.109375 187.382812 C 42.109375 148.597656 57.203125 112.074219 84.667969 84.667969 C 112.074219 57.203125 148.597656 42.109375 187.382812 42.109375 C 226.171875 42.109375 262.691406 57.203125 290.097656 84.667969 C 317.5625 112.132812 332.660156 148.597656 332.660156 187.382812 C 332.660156 226.171875 317.5625 262.691406 290.097656 290.097656 C 262.691406 317.5625 226.171875 332.660156 187.382812 332.660156 Z M 187.382812 50.816406 C 150.917969 50.816406 116.605469 65.042969 90.824219 90.824219 C 65.042969 116.605469 50.816406 150.917969 50.816406 187.382812 C 50.816406 223.847656 65.042969 258.164062 90.824219 283.945312 C 116.605469 309.722656 150.917969 323.949219 187.382812 323.949219 C 223.847656 323.949219 258.164062 309.722656 283.945312 283.945312 C 309.722656 258.164062 323.949219 223.847656 323.949219 187.382812 C 323.949219 150.917969 309.722656 116.605469 283.945312 90.824219 C 258.164062 65.042969 223.847656 50.816406 187.382812 50.816406 Z M 187.382812 50.816406 " fill-opacity="1" fill-rule="nonzero"/><g clip-path="url(#clip-2)"><path fill="rgb(0%, 0%, 0%)" d="M 225.417969 159.472656 C 212.972656 168.445312 199.664062 181.3125 201.636719 197.945312 C 203.324219 212.300781 214.03125 219.875 226.386719 224.628906 C 237.9375 229.082031 252.464844 230.5 261.699219 239.417969 C 273.214844 250.542969 260.410156 266.335938 250.5625 272.527344 C 232.789062 283.761719 199.070312 289.179688 195.234375 314.140625 C 195.195312 314.324219 195.226562 314.5 195.328125 314.660156 C 195.425781 314.820312 195.566406 314.925781 195.75 314.972656 C 195.929688 315.023438 196.105469 315.003906 196.273438 314.917969 C 196.4375 314.828125 196.554688 314.695312 196.613281 314.519531 C 206.695312 289.574219 240.035156 289.394531 259.511719 275.039062 C 268.480469 268.472656 273.859375 258.492188 273.050781 247.277344 C 272.246094 236.0625 262.992188 229.582031 253.664062 225.816406 C 242.167969 221.203125 229.453125 219.246094 218.855469 212.625 C 210.550781 207.457031 207.394531 196.746094 210.136719 187.628906 C 212.882812 178.511719 223.105469 170.582031 230.296875 165.105469 C 235.730469 160.960938 253.664062 146.515625 240.449219 140.128906 C 237.238281 138.585938 235.316406 140.972656 233.578125 136.070312 C 231.371094 129.84375 235.605469 123.636719 239.515625 119.292969 C 239.980469 118.789062 240.484375 118.304688 240.96875 117.820312 C 241.449219 117.976562 241.894531 117.898438 242.292969 117.589844 C 247.019531 113.742188 252.125 110.496094 257.609375 107.84375 C 255.28125 109.636719 253 111.433594 250.921875 113.351562 C 247.550781 116.441406 242.367188 121.914062 244.429688 126.9375 C 244.679688 127.546875 245.667969 127.316406 245.453125 126.652344 C 243.65625 121.070312 251.476562 115.613281 254.992188 112.4375 C 258.132812 109.601562 261.734375 107.269531 265.054688 104.648438 L 265.933594 104.308594 C 272.835938 101.796875 278.683594 99.265625 283.867188 93.992188 C 293.550781 84.246094 293.785156 70.085938 284.28125 60.449219 C 284.144531 60.316406 283.984375 60.242188 283.792969 60.226562 C 283.601562 60.214844 283.433594 60.265625 283.28125 60.382812 C 283.132812 60.5 283.039062 60.652344 283.003906 60.839844 C 282.96875 61.027344 283 61.203125 283.097656 61.367188 C 292.746094 76.925781 282.039062 91.871094 266.488281 96.863281 C 260.714844 98.667969 255.433594 101.425781 250.652344 105.132812 C 240.394531 110.699219 230.835938 118.359375 228.269531 129.828125 C 227.355469 133.9375 227.945312 141.976562 232.019531 144.363281 C 234.976562 146.15625 240.015625 146.496094 235.15625 151.539062 C 232.148438 154.476562 228.902344 157.121094 225.417969 159.472656 Z M 225.417969 159.472656 " fill-opacity="1" fill-rule="nonzero"/></g><path fill="rgb(0%, 0%, 0%)" d="M 213.6875 274.265625 C 213.007812 274.375 213.167969 275.523438 213.851562 275.46875 C 218.246094 275.207031 222.53125 274.378906 226.707031 272.980469 C 230.882812 271.585938 234.804688 269.667969 238.476562 267.234375 C 244.535156 262.980469 248.875 254.203125 242.726562 247.976562 C 237.164062 242.324219 223.964844 240.671875 219.839844 249.304688 C 215.230469 258.941406 227.230469 263.175781 232.683594 255.246094 C 233.867188 253.449219 231.550781 251.296875 229.832031 252.390625 C 228.667969 253.238281 227.410156 253.914062 226.0625 254.417969 L 224.269531 251.925781 C 225.351562 250.328125 226.816406 249.257812 228.664062 248.714844 C 230.011719 248.304688 231.390625 248.160156 232.792969 248.28125 C 234.199219 248.402344 235.53125 248.777344 236.789062 249.414062 C 242.921875 252.230469 241.808594 258.691406 238.097656 262.835938 C 232.449219 269.261719 221.992188 272.9375 213.6875 274.265625 Z M 213.6875 274.265625 " fill-opacity="1" fill-rule="nonzero"/><path fill="rgb(0%, 0%, 0%)" d="M 223.714844 233.925781 C 214.371094 234.625 206.011719 242.988281 209.742188 252.554688 C 209.996094 253.199219 211.015625 252.949219 210.800781 252.265625 C 207.878906 243.292969 217.402344 239.847656 224.34375 238.503906 C 224.601562 238.414062 224.839844 238.285156 225.050781 238.117188 C 225.265625 237.945312 225.445312 237.746094 225.589844 237.511719 C 225.734375 237.28125 225.835938 237.03125 225.890625 236.761719 C 225.949219 236.496094 225.957031 236.226562 225.921875 235.953125 C 225.882812 235.683594 225.800781 235.425781 225.675781 235.183594 C 225.546875 234.941406 225.382812 234.726562 225.183594 234.542969 C 224.980469 234.359375 224.753906 234.210938 224.503906 234.105469 C 224.25 234 223.988281 233.941406 223.714844 233.925781 Z M 223.714844 233.925781 " fill-opacity="1" fill-rule="nonzero"/><path fill="rgb(0%, 0%, 0%)" d="M 209.832031 231.054688 C 205.78125 232.671875 201.960938 236.042969 202.28125 240.746094 C 202.3125 240.949219 202.40625 241.117188 202.558594 241.25 C 202.714844 241.382812 202.894531 241.449219 203.097656 241.449219 C 203.304688 241.449219 203.484375 241.382812 203.636719 241.25 C 203.792969 241.117188 203.882812 240.949219 203.914062 240.746094 C 204.398438 236.960938 208.023438 235.363281 211.089844 234.125 C 212.863281 233.386719 211.589844 230.355469 209.832031 231.054688 Z M 209.832031 231.054688 " fill-opacity="1" fill-rule="nonzero"/><path fill="rgb(0%, 0%, 0%)" d="M 198.515625 231.683594 C 199.429688 230.964844 200.722656 230.335938 200.867188 229.082031 C 200.867188 228.898438 200.832031 228.726562 200.761719 228.558594 C 200.691406 228.390625 200.59375 228.246094 200.464844 228.117188 C 200.339844 227.988281 200.191406 227.890625 200.023438 227.820312 C 199.855469 227.753906 199.683594 227.71875 199.503906 227.71875 C 198.265625 227.859375 197.710938 229.171875 196.902344 230.066406 C 196.796875 230.175781 196.710938 230.296875 196.65625 230.4375 C 196.597656 230.578125 196.566406 230.722656 196.566406 230.875 C 196.566406 231.027344 196.597656 231.171875 196.65625 231.3125 C 196.710938 231.453125 196.796875 231.578125 196.902344 231.683594 C 197.007812 231.789062 197.132812 231.871094 197.273438 231.929688 C 197.414062 231.988281 197.558594 232.019531 197.710938 232.019531 C 197.859375 232.019531 198.007812 231.988281 198.144531 231.929688 C 198.285156 231.871094 198.410156 231.789062 198.515625 231.683594 Z M 198.515625 231.683594 " fill-opacity="1" fill-rule="nonzero"/><path fill="rgb(0%, 0%, 0%)" d="M 222.546875 186.121094 C 208.433594 209.304688 258.257812 216.96875 269.804688 223.679688 C 269.960938 223.769531 270.128906 223.792969 270.300781 223.746094 C 270.476562 223.703125 270.609375 223.601562 270.703125 223.445312 C 270.792969 223.289062 270.816406 223.125 270.769531 222.949219 C 270.726562 222.773438 270.625 222.640625 270.46875 222.550781 C 259.925781 215.460938 246.761719 212.949219 236.054688 205.914062 C 230.925781 202.539062 224.539062 197.445312 226.53125 190.589844 C 226.925781 189.347656 227.496094 188.195312 228.238281 187.128906 C 228.984375 186.0625 229.867188 185.128906 230.894531 184.328125 C 231.917969 183.527344 233.039062 182.894531 234.253906 182.433594 C 235.472656 181.972656 236.726562 181.699219 238.027344 181.617188 C 240.367188 181.667969 242.5625 182.265625 244.609375 183.410156 C 245.992188 184.113281 247.144531 185.089844 248.070312 186.335938 C 250.257812 190.082031 247.9375 191.582031 241.109375 190.839844 C 240.976562 190.628906 240.792969 190.476562 240.558594 190.386719 C 240.324219 190.292969 240.085938 190.28125 239.839844 190.347656 C 239.597656 190.414062 239.398438 190.542969 239.242188 190.742188 C 239.085938 190.9375 239.003906 191.164062 238.996094 191.414062 C 239.351562 204.730469 259.332031 195.488281 252.714844 183.464844 C 249.933594 178.421875 243.191406 176.414062 237.917969 176.070312 C 231.03125 175.621094 225.882812 180.648438 222.546875 186.121094 Z M 222.546875 186.121094 " fill-opacity="1" fill-rule="nonzero"/><path fill="rgb(0%, 0%, 0%)" d="M 242.796875 165.320312 C 242.332031 165.789062 243.046875 166.488281 243.515625 166.039062 C 248.894531 160.871094 260.984375 153.675781 260.195312 144.9375 C 259.941406 142.191406 256.75 140.164062 254.472656 139.355469 C 250.277344 137.882812 233.417969 135.136719 243.476562 127.925781 C 244.230469 127.386719 243.28125 126.328125 242.742188 126.972656 C 238.082031 132.355469 238.347656 135.839844 245.414062 138.277344 C 247.550781 139.015625 249.773438 139.480469 251.925781 140.074219 C 259.761719 142.460938 259.566406 147.683594 255.296875 153.046875 C 251.675781 157.660156 246.902344 161.265625 242.796875 165.320312 Z M 242.796875 165.320312 " fill-opacity="1" fill-rule="nonzero"/><path fill="rgb(0%, 0%, 0%)" d="M 208.828125 154.824219 C 204.183594 159.398438 198.675781 162.9375 195.144531 168.515625 C 189.226562 177.847656 186.734375 191.324219 194.320312 200.261719 C 194.820312 200.855469 195.863281 200.0625 195.414062 199.417969 C 184.652344 184.414062 200.578125 169.089844 211.359375 160.460938 C 218.78125 154.519531 224.628906 145.761719 218.765625 136.664062 C 218.488281 136.226562 218.183594 135.808594 217.859375 135.410156 C 217.535156 135.007812 217.1875 134.625 216.816406 134.265625 C 216.449219 133.902344 216.0625 133.5625 215.652344 133.246094 C 215.246094 132.929688 214.820312 132.636719 214.378906 132.371094 C 213.9375 132.101562 213.480469 131.859375 213.011719 131.644531 C 212.542969 131.429688 212.0625 131.238281 211.574219 131.078125 C 211.082031 130.917969 210.585938 130.785156 210.078125 130.679688 C 209.574219 130.578125 209.0625 130.503906 208.546875 130.457031 C 208.035156 130.410156 207.519531 130.394531 207.003906 130.410156 C 206.484375 130.421875 205.972656 130.464844 205.460938 130.539062 C 204.949219 130.613281 204.445312 130.714844 203.945312 130.84375 C 203.445312 130.972656 202.953125 131.132812 202.472656 131.320312 C 201.992188 131.507812 201.523438 131.71875 201.066406 131.960938 C 200.609375 132.203125 200.167969 132.46875 199.738281 132.757812 C 199.3125 133.050781 198.90625 133.363281 198.515625 133.703125 C 198.125 134.039062 197.753906 134.398438 197.40625 134.78125 C 196.769531 135.445312 196.253906 136.195312 195.863281 137.03125 C 195.472656 137.863281 195.222656 138.738281 195.113281 139.65625 C 195.003906 140.570312 195.046875 141.480469 195.230469 142.382812 C 195.417969 143.28125 195.746094 144.132812 196.207031 144.929688 C 196.671875 145.726562 197.25 146.429688 197.941406 147.035156 C 198.632812 147.644531 199.402344 148.128906 200.25 148.488281 C 201.097656 148.847656 201.984375 149.058594 202.902344 149.132812 C 203.820312 149.203125 204.726562 149.125 205.617188 148.902344 C 205.894531 148.8125 206.144531 148.679688 206.371094 148.5 C 206.601562 148.324219 206.792969 148.109375 206.945312 147.867188 C 207.097656 147.621094 207.207031 147.355469 207.269531 147.074219 C 207.328125 146.792969 207.339844 146.507812 207.300781 146.21875 C 207.265625 145.933594 207.179688 145.660156 207.042969 145.40625 C 206.910156 145.148438 206.738281 144.921875 206.523438 144.726562 C 206.3125 144.53125 206.074219 144.375 205.804688 144.265625 C 205.539062 144.152344 205.261719 144.089844 204.972656 144.074219 C 202.582031 137.664062 203.898438 135.269531 208.917969 136.898438 C 210.269531 137.332031 211.457031 138.039062 212.476562 139.023438 C 213.5 140.007812 214.257812 141.164062 214.746094 142.496094 C 216.628906 147.324219 211.753906 151.882812 208.828125 154.824219 Z M 208.828125 154.824219 " fill-opacity="1" fill-rule="nonzero"/><path fill="rgb(0%, 0%, 0%)" d="M 254.992188 129.039062 C 252.085938 129.628906 252.734375 134.601562 255.691406 134.242188 C 265.933594 132.984375 278.144531 131.011719 285.714844 139.820312 C 286.199219 140.378906 287.183594 139.625 286.738281 139.03125 C 279.492188 129.414062 266.363281 126.722656 254.992188 129.039062 Z M 254.992188 129.039062 " fill-opacity="1" fill-rule="nonzero"/><path fill="rgb(0%, 0%, 0%)" d="M 257.898438 124.101562 C 260.683594 123.117188 263.546875 122.492188 266.492188 122.234375 C 269.433594 121.976562 272.363281 122.089844 275.277344 122.578125 C 275.976562 122.703125 276.296875 121.660156 275.582031 121.480469 C 269.664062 119.992188 262.488281 118.519531 256.714844 121.304688 C 255.152344 122.054688 256.265625 124.640625 257.898438 124.101562 Z M 257.898438 124.101562 " fill-opacity="1" fill-rule="nonzero"/><path fill="rgb(0%, 0%, 0%)" d="M 264.675781 114.035156 C 265.84375 114.035156 266.46875 113.621094 267.476562 114.324219 C 267.78125 114.5 268.109375 114.5625 268.460938 114.515625 C 268.808594 114.46875 269.109375 114.320312 269.359375 114.070312 C 269.5 113.921875 269.609375 113.753906 269.6875 113.5625 C 269.761719 113.371094 269.800781 113.171875 269.800781 112.96875 C 269.800781 112.761719 269.761719 112.5625 269.6875 112.371094 C 269.609375 112.183594 269.5 112.011719 269.359375 111.863281 C 269.203125 111.628906 269.023438 111.414062 268.820312 111.21875 C 268.617188 111.023438 268.398438 110.855469 268.15625 110.707031 C 267.917969 110.558594 267.664062 110.441406 267.398438 110.351562 C 267.132812 110.257812 266.859375 110.199219 266.582031 110.164062 C 266.300781 110.132812 266.019531 110.132812 265.742188 110.164062 C 265.460938 110.191406 265.1875 110.25 264.921875 110.339844 C 264.65625 110.429688 264.402344 110.546875 264.160156 110.691406 C 263.921875 110.835938 263.699219 111.007812 263.492188 111.199219 C 263.257812 111.4375 263.109375 111.722656 263.046875 112.050781 C 262.984375 112.382812 263.019531 112.699219 263.148438 113.007812 C 263.277344 113.320312 263.480469 113.566406 263.757812 113.753906 C 264.035156 113.9375 264.34375 114.035156 264.675781 114.035156 Z M 264.675781 114.035156 " fill-opacity="1" fill-rule="nonzero"/><path fill="rgb(0%, 0%, 0%)" d="M 206.550781 124.640625 C 213.726562 129.164062 223.265625 124.390625 223.964844 136.359375 C 223.964844 136.539062 224.03125 136.695312 224.15625 136.820312 C 224.285156 136.949219 224.4375 137.015625 224.621094 137.015625 C 224.800781 137.015625 224.957031 136.949219 225.082031 136.820312 C 225.210938 136.695312 225.273438 136.539062 225.273438 136.359375 C 225.183594 129.628906 222.171875 126.128906 216.054688 123.796875 C 212.808594 122.578125 209.347656 121.839844 207.464844 118.648438 C 205.582031 115.453125 208.273438 111.808594 210.835938 110.035156 C 211.6875 109.410156 212.636719 109.035156 213.683594 108.910156 C 214.730469 108.78125 215.742188 108.917969 216.71875 109.316406 C 219.300781 110.429688 218.691406 112.347656 216.359375 112.90625 C 215.992188 113.011719 215.683594 113.207031 215.433594 113.5 C 215.183594 113.789062 215.035156 114.125 214.984375 114.507812 C 214.9375 114.886719 214.996094 115.25 215.164062 115.59375 C 215.332031 115.9375 215.582031 116.207031 215.914062 116.402344 C 221.902344 119.222656 226.53125 113.621094 223.390625 108.023438 C 219.25 100.628906 209.152344 103.429688 204.703125 108.542969 C 204.441406 108.824219 204.195312 109.121094 203.96875 109.425781 C 203.738281 109.734375 203.527344 110.054688 203.332031 110.382812 C 203.136719 110.714844 202.960938 111.054688 202.800781 111.40625 C 202.644531 111.753906 202.503906 112.109375 202.382812 112.476562 C 202.265625 112.839844 202.164062 113.210938 202.085938 113.585938 C 202.003906 113.960938 201.945312 114.339844 201.90625 114.722656 C 201.867188 115.105469 201.851562 115.488281 201.851562 115.871094 C 201.855469 116.253906 201.878906 116.636719 201.921875 117.019531 C 201.964844 117.398438 202.03125 117.777344 202.113281 118.152344 C 202.199219 118.527344 202.304688 118.894531 202.429688 119.257812 C 202.550781 119.621094 202.695312 119.976562 202.859375 120.324219 C 203.019531 120.671875 203.203125 121.007812 203.402344 121.335938 C 203.601562 121.664062 203.816406 121.980469 204.050781 122.285156 C 204.285156 122.589844 204.53125 122.882812 204.796875 123.160156 C 205.0625 123.4375 205.339844 123.699219 205.632812 123.949219 C 205.925781 124.195312 206.234375 124.425781 206.550781 124.640625 Z M 206.550781 124.640625 " fill-opacity="1" fill-rule="nonzero"/><path fill="rgb(0%, 0%, 0%)" d="M 230.746094 107.054688 C 230.746094 107.273438 230.785156 107.480469 230.871094 107.683594 C 230.953125 107.882812 231.070312 108.0625 231.226562 108.214844 C 231.378906 108.371094 231.558594 108.488281 231.757812 108.570312 C 231.957031 108.65625 232.167969 108.695312 232.386719 108.695312 C 232.601562 108.695312 232.8125 108.65625 233.015625 108.570312 C 233.214844 108.488281 233.390625 108.371094 233.546875 108.214844 C 233.699219 108.0625 233.820312 107.882812 233.902344 107.683594 C 233.984375 107.480469 234.027344 107.273438 234.027344 107.054688 C 234.070312 104.753906 233.4375 102.660156 232.125 100.773438 C 230.835938 98.980469 227.910156 100.558594 229.078125 102.566406 C 230.003906 103.925781 230.558594 105.421875 230.746094 107.054688 Z M 230.746094 107.054688 " fill-opacity="1" fill-rule="nonzero"/><path fill="rgb(0%, 0%, 0%)" d="M 240.339844 101.671875 C 241.09375 102.65625 242.921875 102.136719 242.492188 100.753906 C 242.292969 99.949219 241.949219 99.214844 241.457031 98.546875 C 240.964844 97.878906 240.367188 97.328125 239.660156 96.898438 C 239.402344 96.796875 239.140625 96.773438 238.867188 96.828125 C 238.597656 96.882812 238.367188 97.007812 238.171875 97.203125 C 237.976562 97.398438 237.851562 97.632812 237.796875 97.902344 C 237.738281 98.171875 237.761719 98.4375 237.863281 98.691406 C 238.347656 99.964844 239.570312 100.648438 240.339844 101.671875 Z M 240.339844 101.671875 " fill-opacity="1" fill-rule="nonzero"/><path fill="rgb(0%, 0%, 0%)" d="M 255.011719 94.492188 C 255.019531 94.324219 255.007812 94.15625 254.972656 93.988281 C 254.941406 93.820312 254.890625 93.660156 254.820312 93.503906 C 254.75 93.351562 254.664062 93.207031 254.558594 93.074219 C 254.453125 92.9375 254.335938 92.820312 254.199219 92.714844 C 254.066406 92.609375 253.925781 92.519531 253.769531 92.449219 C 253.617188 92.378906 253.453125 92.328125 253.289062 92.292969 C 253.121094 92.261719 252.953125 92.25 252.785156 92.257812 C 252.613281 92.265625 252.449219 92.292969 252.285156 92.339844 C 251.992188 92.429688 251.742188 92.59375 251.542969 92.828125 C 251.34375 93.0625 251.222656 93.332031 251.179688 93.636719 C 251.132812 93.941406 251.175781 94.234375 251.300781 94.515625 C 251.425781 94.796875 251.617188 95.023438 251.871094 95.191406 C 252.085938 95.457031 252.355469 95.648438 252.675781 95.761719 C 252.996094 95.875 253.324219 95.890625 253.660156 95.816406 C 253.992188 95.742188 254.28125 95.585938 254.523438 95.347656 C 254.765625 95.109375 254.929688 94.824219 255.011719 94.492188 Z M 251.890625 95.246094 C 252.011719 95.335938 252.144531 95.410156 252.285156 95.460938 C 252.132812 95.414062 251.996094 95.34375 251.871094 95.246094 Z M 251.890625 95.246094 " fill-opacity="1" fill-rule="nonzero"/><path fill="rgb(0%, 0%, 0%)" d="M 145.179688 252.410156 C 143.386719 251.316406 141.144531 253.523438 142.328125 255.261719 C 147.707031 263.195312 159.777344 258.960938 155.167969 249.324219 C 151.042969 240.691406 137.84375 242.34375 132.285156 247.996094 C 126.148438 254.222656 130.488281 263.035156 136.535156 267.234375 C 140.203125 269.683594 144.125 271.613281 148.304688 273.019531 C 152.484375 274.429688 156.773438 275.269531 161.175781 275.542969 C 161.859375 275.542969 162.019531 274.445312 161.335938 274.339844 C 153.035156 273.011719 142.597656 269.332031 136.855469 262.925781 C 133.144531 258.78125 132.03125 252.320312 138.167969 249.503906 C 139.425781 248.867188 140.757812 248.488281 142.160156 248.367188 C 143.566406 248.246094 144.941406 248.390625 146.289062 248.804688 C 148.148438 249.34375 149.617188 250.414062 150.703125 252.015625 L 148.910156 254.507812 C 147.570312 253.976562 146.328125 253.277344 145.179688 252.410156 Z M 145.179688 252.410156 " fill-opacity="1" fill-rule="nonzero"/><path fill="rgb(0%, 0%, 0%)" d="M 165.285156 252.570312 C 169.015625 243.007812 160.65625 234.625 151.3125 233.945312 C 151.039062 233.957031 150.777344 234.019531 150.523438 234.125 C 150.273438 234.230469 150.046875 234.375 149.84375 234.5625 C 149.640625 234.746094 149.476562 234.960938 149.351562 235.203125 C 149.226562 235.445312 149.144531 235.703125 149.105469 235.972656 C 149.066406 236.242188 149.078125 236.511719 149.136719 236.78125 C 149.191406 237.046875 149.292969 237.296875 149.4375 237.53125 C 149.582031 237.761719 149.761719 237.964844 149.972656 238.132812 C 150.1875 238.304688 150.425781 238.433594 150.683594 238.519531 C 157.644531 239.847656 167.167969 243.238281 164.226562 252.210938 C 163.992188 252.949219 165.03125 253.199219 165.285156 252.570312 Z M 165.285156 252.570312 " fill-opacity="1" fill-rule="nonzero"/><path fill="rgb(0%, 0%, 0%)" d="M 171.164062 240.761719 C 171.195312 240.964844 171.289062 241.132812 171.441406 241.265625 C 171.597656 241.402344 171.777344 241.46875 171.980469 241.46875 C 172.1875 241.46875 172.367188 241.402344 172.519531 241.265625 C 172.675781 241.132812 172.769531 240.964844 172.796875 240.761719 C 173.140625 236.042969 169.210938 232.6875 165.246094 231.074219 C 163.453125 230.375 162.199219 233.40625 163.957031 234.140625 C 167.003906 235.453125 170.628906 236.960938 171.164062 240.761719 Z M 171.164062 240.761719 " fill-opacity="1" fill-rule="nonzero"/><path fill="rgb(0%, 0%, 0%)" d="M 175.523438 227.71875 C 175.34375 227.71875 175.167969 227.753906 175.003906 227.820312 C 174.835938 227.890625 174.6875 227.988281 174.558594 228.117188 C 174.433594 228.246094 174.332031 228.390625 174.265625 228.558594 C 174.195312 228.726562 174.160156 228.898438 174.160156 229.082031 C 174.304688 230.320312 175.613281 230.875 176.511719 231.683594 C 176.734375 231.886719 176.996094 231.984375 177.296875 231.976562 C 177.597656 231.972656 177.855469 231.859375 178.070312 231.648438 C 178.285156 231.433594 178.394531 231.175781 178.402344 230.875 C 178.40625 230.570312 178.308594 230.308594 178.105469 230.085938 C 177.40625 229.171875 176.761719 227.878906 175.523438 227.71875 Z M 175.523438 227.71875 " fill-opacity="1" fill-rule="nonzero"/><path fill="rgb(0%, 0%, 0%)" d="M 139.0625 205.914062 C 128.300781 212.949219 115.210938 215.460938 104.644531 222.550781 C 104.492188 222.640625 104.390625 222.773438 104.34375 222.949219 C 104.300781 223.125 104.324219 223.289062 104.414062 223.445312 C 104.507812 223.601562 104.640625 223.703125 104.8125 223.746094 C 104.988281 223.792969 105.152344 223.769531 105.308594 223.679688 C 116.789062 216.984375 166.59375 209.324219 152.476562 186.121094 C 149.140625 180.738281 144.011719 175.621094 137.089844 176.070312 C 131.800781 176.414062 125.054688 178.402344 122.292969 183.464844 C 115.675781 195.488281 135.65625 204.730469 136.015625 191.414062 C 136.003906 191.164062 135.921875 190.9375 135.765625 190.742188 C 135.609375 190.542969 135.410156 190.414062 135.167969 190.347656 C 134.925781 190.28125 134.6875 190.292969 134.453125 190.386719 C 134.21875 190.476562 134.03125 190.628906 133.898438 190.839844 C 127.09375 191.59375 124.8125 190.0625 127.046875 186.246094 C 127.96875 185 129.125 184.023438 130.507812 183.320312 C 132.554688 182.179688 134.746094 181.578125 137.089844 181.527344 C 138.386719 181.609375 139.644531 181.882812 140.859375 182.34375 C 142.078125 182.804688 143.195312 183.4375 144.222656 184.238281 C 145.246094 185.039062 146.132812 185.972656 146.875 187.039062 C 147.621094 188.105469 148.191406 189.261719 148.585938 190.5 C 150.578125 197.445312 144.265625 202.539062 139.0625 205.914062 Z M 139.0625 205.914062 " fill-opacity="1" fill-rule="nonzero"/><path fill="rgb(0%, 0%, 0%)" d="M 120.574219 139.355469 C 118.292969 140.164062 115.085938 142.191406 114.851562 144.9375 C 114.0625 153.695312 126.113281 160.871094 131.53125 166.039062 C 131.996094 166.488281 132.714844 165.789062 132.246094 165.320312 C 128.140625 161.25 123.28125 157.660156 119.695312 153.101562 C 115.441406 147.71875 115.246094 142.515625 123.066406 140.128906 C 125.21875 139.464844 127.460938 139.015625 129.574219 138.332031 C 136.640625 135.890625 136.910156 132.464844 132.246094 127.027344 C 131.691406 126.382812 130.757812 127.441406 131.511719 127.976562 C 141.628906 135.136719 124.769531 137.882812 120.574219 139.355469 Z M 120.574219 139.355469 " fill-opacity="1" fill-rule="nonzero"/><g clip-path="url(#clip-3)"><path fill="rgb(0%, 0%, 0%)" d="M 91.105469 94.007812 C 96.359375 99.300781 102.207031 101.816406 109.039062 104.328125 L 109.917969 104.667969 C 113.238281 107.289062 116.84375 109.601562 119.980469 112.457031 C 123.566406 115.632812 131.367188 121.085938 129.523438 126.667969 C 129.304688 127.332031 130.292969 127.566406 130.527344 126.957031 C 132.589844 121.914062 127.40625 116.457031 124.035156 113.371094 C 121.953125 111.449219 119.675781 109.621094 117.34375 107.863281 C 122.847656 110.515625 127.972656 113.769531 132.714844 117.625 C 133.117188 117.933594 133.558594 118.011719 134.042969 117.859375 C 134.527344 118.34375 135.027344 118.828125 135.492188 119.328125 C 139.421875 123.671875 143.636719 129.863281 141.429688 136.109375 C 139.636719 141.023438 137.84375 138.621094 134.5625 140.164062 C 121.34375 146.550781 139.3125 160.980469 144.785156 165.144531 C 151.976562 170.597656 162.199219 178.636719 164.960938 187.609375 C 167.722656 196.582031 164.53125 207.351562 156.246094 212.609375 C 145.628906 219.230469 132.929688 221.183594 121.433594 225.796875 C 112.054688 229.566406 102.800781 236.242188 102.011719 247.1875 C 101.222656 258.132812 106.601562 268.363281 115.570312 274.984375 C 135.046875 289.339844 168.386719 289.574219 178.464844 314.464844 C 178.527344 314.640625 178.640625 314.773438 178.808594 314.863281 C 178.976562 314.953125 179.148438 314.96875 179.332031 314.921875 C 179.511719 314.871094 179.652344 314.765625 179.753906 314.605469 C 179.851562 314.445312 179.882812 314.273438 179.847656 314.085938 C 175.953125 289.179688 142.238281 283.761719 124.535156 272.527344 C 114.691406 266.316406 101.882812 250.5625 113.398438 239.417969 C 122.632812 230.445312 137.160156 229.082031 148.710938 224.628906 C 160.996094 219.910156 171.703125 212.25 173.390625 197.945312 C 175.34375 181.3125 162.054688 168.460938 149.644531 159.472656 C 146.136719 157.140625 142.867188 154.515625 139.835938 151.59375 C 134.972656 146.535156 140.011719 146.210938 142.972656 144.417969 C 147.0625 142.03125 147.636719 133.988281 146.722656 129.878906 C 144.175781 118.394531 134.597656 110.75 124.339844 105.1875 C 119.554688 101.480469 114.277344 98.722656 108.503906 96.914062 C 92.953125 91.925781 82.246094 76.976562 91.894531 61.421875 C 91.992188 61.257812 92.023438 61.082031 91.988281 60.894531 C 91.953125 60.707031 91.859375 60.554688 91.707031 60.4375 C 91.558594 60.320312 91.386719 60.269531 91.195312 60.28125 C 91.007812 60.292969 90.84375 60.367188 90.710938 60.503906 C 81.1875 70.105469 81.492188 84.265625 91.105469 94.007812 Z M 91.105469 94.007812 " fill-opacity="1" fill-rule="nonzero"/></g><path fill="rgb(0%, 0%, 0%)" d="M 156.351562 136.683594 C 150.503906 145.78125 156.351562 154.628906 163.757812 160.476562 C 174.519531 169.109375 190.535156 184.433594 179.703125 199.4375 C 179.238281 200.082031 180.277344 200.871094 180.796875 200.28125 C 188.382812 191.308594 185.871094 177.867188 179.972656 168.535156 C 176.386719 162.953125 171.003906 159.417969 166.289062 154.84375 C 163.292969 151.898438 158.414062 147.339844 160.386719 142.53125 C 160.875 141.199219 161.632812 140.042969 162.65625 139.058594 C 163.679688 138.078125 164.867188 137.367188 166.214844 136.933594 C 171.25 135.304688 172.566406 137.699219 170.160156 144.109375 C 169.871094 144.125 169.59375 144.1875 169.328125 144.300781 C 169.0625 144.414062 168.820312 144.566406 168.609375 144.761719 C 168.394531 144.957031 168.222656 145.183594 168.089844 145.441406 C 167.957031 145.699219 167.871094 145.96875 167.832031 146.257812 C 167.792969 146.542969 167.804688 146.828125 167.867188 147.109375 C 167.925781 147.394531 168.035156 147.65625 168.1875 147.902344 C 168.34375 148.148438 168.535156 148.359375 168.761719 148.535156 C 168.988281 148.714844 169.242188 148.847656 169.515625 148.9375 C 170.410156 149.160156 171.316406 149.238281 172.234375 149.167969 C 173.152344 149.097656 174.035156 148.882812 174.882812 148.523438 C 175.734375 148.164062 176.503906 147.679688 177.195312 147.074219 C 177.886719 146.464844 178.460938 145.761719 178.925781 144.964844 C 179.390625 144.167969 179.714844 143.320312 179.902344 142.417969 C 180.089844 141.515625 180.128906 140.605469 180.019531 139.691406 C 179.914062 138.773438 179.664062 137.902344 179.273438 137.066406 C 178.878906 136.234375 178.367188 135.480469 177.730469 134.816406 C 177.382812 134.433594 177.011719 134.074219 176.621094 133.734375 C 176.230469 133.394531 175.820312 133.078125 175.394531 132.789062 C 174.96875 132.496094 174.527344 132.230469 174.070312 131.988281 C 173.613281 131.746094 173.144531 131.53125 172.660156 131.34375 C 172.179688 131.15625 171.6875 130.996094 171.1875 130.867188 C 170.6875 130.734375 170.183594 130.632812 169.671875 130.558594 C 169.160156 130.484375 168.644531 130.441406 168.128906 130.425781 C 167.613281 130.414062 167.097656 130.429688 166.582031 130.472656 C 166.066406 130.519531 165.554688 130.59375 165.046875 130.695312 C 164.542969 130.800781 164.042969 130.933594 163.550781 131.09375 C 163.0625 131.253906 162.582031 131.441406 162.109375 131.65625 C 161.640625 131.875 161.183594 132.117188 160.742188 132.382812 C 160.300781 132.652344 159.875 132.945312 159.46875 133.261719 C 159.058594 133.578125 158.667969 133.917969 158.300781 134.28125 C 157.929688 134.640625 157.582031 135.023438 157.257812 135.425781 C 156.929688 135.828125 156.628906 136.246094 156.351562 136.683594 Z M 156.351562 136.683594 " fill-opacity="1" fill-rule="nonzero"/><path fill="rgb(0%, 0%, 0%)" d="M 119.316406 134.242188 C 122.292969 134.601562 122.902344 129.628906 120.015625 129.039062 C 108.644531 126.742188 95.519531 129.414062 88.253906 139.03125 C 87.804688 139.625 88.792969 140.378906 89.277344 139.820312 C 96.863281 131.011719 109.078125 132.984375 119.316406 134.242188 Z M 119.316406 134.242188 " fill-opacity="1" fill-rule="nonzero"/><path fill="rgb(0%, 0%, 0%)" d="M 99.75 122.558594 C 102.664062 122.074219 105.59375 121.957031 108.535156 122.214844 C 111.480469 122.476562 114.34375 123.097656 117.128906 124.085938 C 118.777344 124.621094 119.890625 122.039062 118.3125 121.285156 C 112.539062 118.503906 105.363281 119.976562 99.445312 121.464844 C 98.726562 121.644531 99.03125 122.683594 99.75 122.558594 Z M 99.75 122.558594 " fill-opacity="1" fill-rule="nonzero"/><path fill="rgb(0%, 0%, 0%)" d="M 107.550781 114.394531 C 108.539062 113.695312 109.183594 114.035156 110.347656 114.105469 C 110.683594 114.105469 110.992188 114.011719 111.269531 113.824219 C 111.546875 113.636719 111.75 113.390625 111.878906 113.082031 C 112.007812 112.773438 112.042969 112.453125 111.980469 112.125 C 111.914062 111.796875 111.765625 111.511719 111.535156 111.273438 C 111.328125 111.078125 111.105469 110.910156 110.867188 110.765625 C 110.625 110.617188 110.371094 110.5 110.105469 110.414062 C 109.835938 110.324219 109.566406 110.265625 109.285156 110.234375 C 109.003906 110.203125 108.726562 110.207031 108.445312 110.238281 C 108.167969 110.269531 107.894531 110.332031 107.628906 110.421875 C 107.363281 110.511719 107.109375 110.632812 106.871094 110.777344 C 106.628906 110.925781 106.410156 111.097656 106.207031 111.292969 C 106.003906 111.488281 105.824219 111.703125 105.667969 111.9375 C 105.527344 112.085938 105.417969 112.253906 105.339844 112.445312 C 105.265625 112.636719 105.226562 112.832031 105.226562 113.039062 C 105.226562 113.246094 105.265625 113.441406 105.339844 113.632812 C 105.417969 113.824219 105.527344 113.996094 105.667969 114.144531 C 105.917969 114.394531 106.21875 114.542969 106.566406 114.589844 C 106.917969 114.636719 107.246094 114.570312 107.550781 114.394531 Z M 107.550781 114.394531 " fill-opacity="1" fill-rule="nonzero"/><path fill="rgb(0%, 0%, 0%)" d="M 158.988281 123.851562 C 152.871094 126.148438 149.859375 129.664062 149.769531 136.414062 C 149.769531 136.59375 149.832031 136.746094 149.960938 136.875 C 150.089844 137.003906 150.242188 137.066406 150.425781 137.066406 C 150.605469 137.066406 150.757812 137.003906 150.886719 136.875 C 151.015625 136.746094 151.078125 136.59375 151.078125 136.414062 C 151.796875 124.441406 161.390625 129.234375 168.492188 124.695312 C 168.808594 124.480469 169.113281 124.25 169.40625 124.003906 C 169.699219 123.757812 169.976562 123.496094 170.238281 123.21875 C 170.503906 122.941406 170.75 122.652344 170.984375 122.347656 C 171.214844 122.046875 171.429688 121.730469 171.628906 121.402344 C 171.828125 121.078125 172.007812 120.742188 172.171875 120.394531 C 172.335938 120.050781 172.476562 119.695312 172.601562 119.335938 C 172.726562 118.972656 172.832031 118.605469 172.917969 118.234375 C 173 117.859375 173.066406 117.484375 173.109375 117.105469 C 173.15625 116.726562 173.179688 116.34375 173.183594 115.960938 C 173.1875 115.578125 173.167969 115.199219 173.132812 114.816406 C 173.09375 114.4375 173.039062 114.0625 172.960938 113.6875 C 172.882812 113.3125 172.785156 112.941406 172.667969 112.578125 C 172.546875 112.214844 172.410156 111.859375 172.253906 111.511719 C 172.101562 111.160156 171.925781 110.824219 171.734375 110.492188 C 171.539062 110.160156 171.332031 109.84375 171.105469 109.535156 C 170.878906 109.226562 170.636719 108.933594 170.375 108.652344 C 165.929688 103.539062 155.832031 100.738281 151.6875 108.132812 C 148.550781 113.730469 153.160156 119.347656 159.167969 116.511719 C 159.496094 116.316406 159.746094 116.046875 159.914062 115.703125 C 160.082031 115.355469 160.144531 114.996094 160.09375 114.613281 C 160.046875 114.234375 159.898438 113.898438 159.648438 113.605469 C 159.398438 113.316406 159.089844 113.117188 158.71875 113.011719 C 156.386719 112.421875 155.777344 110.5 158.359375 109.421875 C 159.335938 109.023438 160.347656 108.890625 161.394531 109.015625 C 162.441406 109.144531 163.390625 109.519531 164.242188 110.140625 C 166.808594 111.9375 169.625 115.523438 167.613281 118.753906 C 165.605469 121.984375 162.199219 122.632812 158.988281 123.851562 Z M 158.988281 123.851562 " fill-opacity="1" fill-rule="nonzero"/><path fill="rgb(0%, 0%, 0%)" d="M 144.265625 107.054688 C 144.453125 105.417969 145.015625 103.925781 145.949219 102.566406 C 147.117188 100.578125 144.15625 98.980469 142.902344 100.773438 C 141.589844 102.660156 140.957031 104.753906 141 107.054688 C 141 107.269531 141.042969 107.480469 141.125 107.679688 C 141.207031 107.878906 141.324219 108.054688 141.476562 108.210938 C 141.632812 108.363281 141.808594 108.480469 142.007812 108.5625 C 142.207031 108.644531 142.414062 108.6875 142.632812 108.6875 C 142.847656 108.6875 143.054688 108.644531 143.257812 108.5625 C 143.457031 108.480469 143.632812 108.363281 143.785156 108.210938 C 143.9375 108.054688 144.058594 107.878906 144.140625 107.679688 C 144.222656 107.480469 144.265625 107.269531 144.265625 107.054688 Z M 144.265625 107.054688 " fill-opacity="1" fill-rule="nonzero"/><path fill="rgb(0%, 0%, 0%)" d="M 134.6875 101.671875 C 135.457031 100.628906 136.675781 99.875 137.234375 98.78125 C 137.335938 98.527344 137.359375 98.261719 137.304688 97.992188 C 137.246094 97.722656 137.121094 97.488281 136.925781 97.292969 C 136.730469 97.097656 136.5 96.972656 136.230469 96.917969 C 135.960938 96.863281 135.695312 96.886719 135.441406 96.988281 C 134.730469 97.417969 134.132812 97.96875 133.640625 98.636719 C 133.152344 99.304688 132.804688 100.039062 132.605469 100.84375 C 132.105469 102.136719 133.953125 102.675781 134.6875 101.671875 Z M 134.6875 101.671875 " fill-opacity="1" fill-rule="nonzero"/><path fill="rgb(0%, 0%, 0%)" d="M 123.246094 95.191406 C 123.5 95.015625 123.6875 94.78125 123.804688 94.496094 C 123.925781 94.207031 123.957031 93.910156 123.902344 93.605469 C 123.851562 93.300781 123.71875 93.03125 123.507812 92.804688 C 123.296875 92.574219 123.042969 92.417969 122.742188 92.339844 C 122.578125 92.292969 122.414062 92.265625 122.242188 92.257812 C 122.074219 92.25 121.90625 92.261719 121.738281 92.292969 C 121.570312 92.328125 121.410156 92.378906 121.257812 92.449219 C 121.101562 92.519531 120.960938 92.609375 120.824219 92.714844 C 120.691406 92.820312 120.574219 92.9375 120.46875 93.074219 C 120.363281 93.207031 120.277344 93.351562 120.207031 93.503906 C 120.136719 93.660156 120.085938 93.820312 120.050781 93.988281 C 120.019531 94.15625 120.007812 94.324219 120.015625 94.492188 C 120.082031 94.847656 120.242188 95.152344 120.492188 95.410156 C 120.746094 95.667969 121.046875 95.835938 121.398438 95.914062 C 121.75 95.988281 122.09375 95.960938 122.429688 95.832031 C 122.765625 95.699219 123.039062 95.488281 123.246094 95.191406 Z M 123.136719 95.191406 C 123.019531 95.289062 122.886719 95.359375 122.742188 95.40625 C 122.882812 95.371094 123.011719 95.316406 123.136719 95.246094 Z M 123.136719 95.191406 " fill-opacity="1" fill-rule="nonzero"/></svg>